Patient4_TMGait_0pt3_03_left_05_GRF.mot
version=1
nRows=58
nColumns=19
inDegrees=no
endheader
time	F1x	F1y	F1z	M1x	M1y	M1z	F2x	F2y	F2z	M2x	M2y	M2z	EC1x	EC1y	EC1z	EC2x	EC2y	EC2z
8.4	1.9224	3.1514	-3.0737	-0.99024	1.749	4.5924	-39.7913	805.2187	-55.3202	283.7095	71.8202	836.6595	-0.0592	0.0182	-0.0073	-0.0462	0.0165	0.9585
8.4188	1.3594	2.1989	-1.9612	-0.7131	1.0627	3.1992	-38.2335	807.7235	-56.2199	283.5739	72.0378	837.1315	-0.0592	0.0182	-0.0073	-0.0462	0.0165	0.9585
8.4376	0.86444	1.3931	-1.0373	-0.47555	0.50412	2.0187	-36.4765	811.6033	-56.768	283.9608	71.7765	838.4547	-0.0592	0.0182	-0.0073	-0.0462	0.0165	0.9585
8.4564	0.47782	0.78704	-0.34667	-0.29482	0.09602	1.1287	-34.4864	816.9581	-56.7241	285.0458	70.7999	840.7306	-0.0592	0.0182	-0.0073	-0.0462	0.0165	0.9585
8.4751	0.20635	0.38077	0.11875	-0.17063	-0.17057	0.52819	-32.1989	823.6423	-55.9252	286.891	68.9432	843.8264	-0.0592	0.0182	-0.0073	-0.0462	0.0165	0.9585
8.4939	0.036302	0.14105	0.39723	-0.092997	-0.32358	0.17155	-29.5591	831.1808	-54.3191	289.3935	66.1501	847.2923	-0.0592	0.0182	-0.0073	-0.0462	0.0165	0.9585
8.5127	-0.055956	0.016177	0.53687	-0.046054	-0.39516	-0.011569	-26.5618	838.7127	-51.9718	292.2589	62.4918	850.3112	-0.0592	0.0182	-0.0073	-0.0462	0.0165	0.9585
8.5315	-0.098285	-0.051187	0.58586	-0.011574	-0.41692	-0.10161	-23.2774	845.0661	-49.0586	295.0327	58.1647	851.7865	-0.0592	0.0182	-0.0073	-0.0462	0.0165	0.9585
8.5503	-0.11841	-0.12185	0.58553	0.029459	-0.41752	-0.17431	-19.8366	849.0101	-45.8429	297.2007	53.4628	850.5872	-0.0592	0.0182	-0.0073	-0.0462	0.0165	0.9585
8.5691	-0.14114	-0.25905	0.56477	0.098442	-0.4214	-0.30113	-16.3672	849.5313	-42.6165	298.3062	48.7011	845.8105	-0.0592	0.0182	-0.0073	-0.0462	0.0165	0.9585
8.5879	-0.18471	-0.52538	0.54068	0.21896	-0.44258	-0.55767	-12.9419	846.0167	-39.6321	298.0338	44.1379	836.9501	-0.0592	0.0182	-0.0073	-0.0462	0.0165	0.9585
8.6066	-0.25773	-0.98512	0.52124	0.41296	-0.48554	-1.0128	-9.5663	838.2989	-37.0593	296.239	39.9304	823.9294	-0.0592	0.0182	-0.0073	-0.0462	0.0165	0.9585
8.6254	-0.35708	-1.6839	0.50714	0.69548	-0.54212	-1.7136	-6.1886	826.6227	-34.9776	292.9432	36.1397	807.0583	-0.0592	0.0182	-0.0073	-0.0462	0.0165	0.9585
8.6442	-0.46802	-2.6308	0.49154	1.068	-0.59212	-2.6731	-2.7269	811.5873	-33.3929	288.3173	32.7563	786.975	-0.0592	0.0182	-0.0073	-0.0462	0.0165	0.9585
8.663	-0.56218	-3.7727	0.45971	1.5075	-0.6053	-3.8408	0.88276	794.0728	-32.267	282.6566	29.7377	764.5842	-0.0592	0.0182	-0.0073	-0.0462	0.0165	0.9585
8.6818	-0.59457	-4.9558	0.38728	1.9525	-0.53818	-5.0659	4.6622	775.1765	-31.531	276.3563	27.0295	740.9874	-0.0592	0.0182	-0.0073	-0.0462	0.0165	0.9585
8.7006	-0.49818	-5.8818	0.24437	2.2879	-0.33772	-6.0514	8.5831	756.1422	-31.0908	269.8799	24.5746	717.4049	-0.0592	0.0182	-0.0073	-0.0462	0.0165	0.9585
8.7194	-0.18346	-6.0684	0.0012839	2.3289	0.054423	-6.3044	12.5759	738.2353	-30.8458	263.7071	22.3259	695.0601	-0.0592	0.0182	-0.0073	-0.0462	0.0165	0.9585
8.7381	0.45597	-4.82	-0.36941	1.8096	0.70269	-5.1112	16.5475	722.5666	-30.7226	258.2639	20.2678	675.0156	-0.0592	0.0182	-0.0073	-0.0462	0.0165	0.9585
8.7569	1.5343	-1.228	-0.88092	0.38245	1.6622	-1.5294	20.3892	709.8835	-30.6896	253.8409	18.4177	657.9856	-0.0592	0.0182	-0.0073	-0.0462	0.0165	0.9585
8.7757	3.1504	5.7801	-1.515	-2.3617	2.951	5.5683	23.9815	700.3942	-30.743	250.5258	16.8141	644.1862	-0.0592	0.0182	-0.0073	-0.0462	0.0165	0.9585
8.7945	5.3437	17.3031	-2.2029	-6.8391	4.5109	17.3524	27.2095	693.6814	-30.8909	248.1738	15.4978	633.2696	-0.0592	0.0182	-0.0073	-0.0462	0.0165	0.9585
8.8133	8.0087	34.2243	-2.8025	-13.3794	6.1507	34.7832	29.9647	688.6911	-31.1233	246.4047	14.486	624.3221	-0.0592	0.0182	-0.0073	-0.0462	0.0165	0.9585
8.8321	10.7177	56.8852	-3.1013	-22.0968	7.4802	58.2761	32.1264	683.8218	-31.3962	244.6366	13.77	615.9519	-0.0592	0.0182	-0.0073	-0.0462	0.0165	0.9585
8.8509	12.6045	84.6802	-2.8281	-32.7347	7.8781	87.2938	33.5685	677.166	-31.6492	242.175	13.3297	606.4998	-0.0592	0.0182	-0.0073	-0.0462	0.0165	0.9585
8.8696	12.9231	116.0894	-1.6836	-44.6769	6.7422	120.367	34.1838	666.9432	-31.8218	238.3727	13.1429	594.4236	-0.0592	0.0182	-0.0073	-0.0462	0.0165	0.9585
8.8884	11.5774	149.0503	0.50447	-57.1051	3.8494	155.4153	33.9198	651.966	-31.8704	232.8022	13.189	578.6914	-0.0592	0.0182	-0.0073	-0.0462	0.0165	0.9585
8.9072	8.8347	181.252	3.5859	-69.1388	-0.53623	190.0334	32.81	631.9019	-31.76	225.3537	13.4307	558.9931	-0.0592	0.0182	-0.0073	-0.0462	0.0165	0.9585
8.926	5.1016	210.8804	7.0472	-80.1236	-5.6982	222.2881	30.9989	607.3028	-31.4581	216.2456	13.7957	535.7484	-0.0592	0.0182	-0.0073	-0.0462	0.0165	0.9585
8.9448	0.72738	237.4456	10.3783	-89.9145	-10.9533	251.6043	28.7267	579.3631	-30.9555	205.9322	14.1964	509.9007	-0.0592	0.0182	-0.0073	-0.0462	0.0165	0.9585
8.9636	-4.0797	261.812	13.3439	-98.8611	-15.972	278.8222	26.2884	549.4883	-30.2641	194.9441	14.5386	482.5679	-0.0592	0.0182	-0.0073	-0.0462	0.0165	0.9585
8.9824	-9.1324	285.4584	15.9536	-107.5255	-20.6928	305.4062	23.9739	518.9313	-29.3899	183.7531	14.7229	454.7501	-0.0592	0.0182	-0.0073	-0.0462	0.0165	0.9585
9.0011	-14.1447	309.667	18.3659	-116.3839	-25.1782	332.5841	21.9874	488.6057	-28.3333	172.705	14.6725	427.185	-0.0592	0.0182	-0.0073	-0.0462	0.0165	0.9585
9.0199	-18.7802	335.0311	20.7502	-125.6471	-29.4805	360.8391	20.404	459.0452	-27.1114	162.0047	14.3659	400.3181	-0.0592	0.0182	-0.0073	-0.0462	0.0165	0.9585
9.0387	-22.7204	361.334	23.1906	-135.221	-33.5682	389.7983	19.1841	430.4882	-25.7657	151.7433	13.841	374.3617	-0.0592	0.0182	-0.0073	-0.0462	0.0165	0.9585
9.0575	-25.6949	387.7947	25.6638	-144.8044	-37.3145	418.5038	18.2296	402.9967	-24.3458	141.9411	13.1648	349.3937	-0.0592	0.0182	-0.0073	-0.0462	0.0165	0.9585
9.0763	-27.5084	413.5064	28.0993	-154.0562	-40.5674	445.8988	17.4439	376.5395	-22.8802	132.5796	12.3907	325.4206	-0.0592	0.0182	-0.0073	-0.0462	0.0165	0.9585
9.0951	-28.0911	437.7999	30.4464	-162.7284	-43.243	471.2276	16.7726	351.047	-21.3757	123.6213	11.5429	302.4069	-0.0592	0.0182	-0.0073	-0.0462	0.0165	0.9585
9.1139	-27.5095	460.4242	32.6779	-170.7349	-45.334	494.219	16.1906	326.4394	-19.8422	115.0206	10.6369	280.2967	-0.0592	0.0182	-0.0073	-0.0462	0.0165	0.9585
9.1326	-25.9456	481.5163	34.78	-178.138	-46.8918	515.0429	15.6662	302.6273	-18.3051	106.7279	9.6996	259.0205	-0.0592	0.0182	-0.0073	-0.0462	0.0165	0.9585
9.1514	-23.645	501.4141	36.7658	-185.0779	-48.0199	534.0955	15.1529	279.5189	-16.7999	98.6945	8.7693	238.5079	-0.0592	0.0182	-0.0073	-0.0462	0.0165	0.9585
9.1702	-20.8622	520.4506	38.6607	-191.6985	-48.837	551.7738	14.605	257.0323	-15.3603	90.879	7.8829	218.6909	-0.0592	0.0182	-0.0073	-0.0462	0.0165	0.9585
9.189	-17.8203	538.7972	40.4639	-198.0914	-49.4227	568.3042	13.9851	235.1351	-14.0155	83.2607	7.0756	199.5382	-0.0592	0.0182	-0.0073	-0.0462	0.0165	0.9585
9.2078	-14.6771	556.431	42.1357	-204.2847	-49.7936	583.7019	13.2798	213.8971	-12.7994	75.8569	6.3837	181.0999	-0.0592	0.0182	-0.0073	-0.0462	0.0165	0.9585
9.2266	-11.525	573.2231	43.5993	-210.2708	-49.906	597.8644	12.5012	193.5233	-11.7469	68.7348	5.8344	163.5336	-0.0592	0.0182	-0.0073	-0.0462	0.0165	0.9585
9.2454	-8.4307	589.0641	44.7613	-216.0424	-49.6913	610.7127	11.682	174.3248	-10.887	62.0019	5.4407	147.0761	-0.0592	0.0182	-0.0073	-0.0462	0.0165	0.9585
9.2641	-5.4634	603.9547	45.557	-221.6158	-49.1093	622.2992	10.867	156.6004	-10.2343	55.7638	5.199	131.9479	-0.0592	0.0182	-0.0073	-0.0462	0.0165	0.9585
9.2829	-2.7141	618.0425	45.9932	-227.0371	-48.1999	632.8558	10.0852	140.4821	-9.779	50.0686	5.0919	118.2306	-0.0592	0.0182	-0.0073	-0.0462	0.0165	0.9585
9.3017	-0.32179	631.6526	46.1617	-232.3923	-47.1077	642.8323	9.3213	125.8322	-9.4815	44.8695	5.0936	105.7906	-0.0592	0.0182	-0.0073	-0.0462	0.0165	0.9585
9.3205	1.5355	645.3159	46.2256	-237.823	-46.0626	652.9066	8.5182	112.275	-9.2728	40.0378	5.166	94.3044	-0.0592	0.0182	-0.0073	-0.0462	0.0165	0.9585
9.3393	2.6903	659.7782	46.3801	-243.5429	-45.3232	663.9529	7.5958	99.317	-9.0575	35.4039	5.2604	83.3533	-0.0592	0.0182	-0.0073	-0.0462	0.0165	0.9585
9.3581	3.0476	675.9125	46.814	-249.8187	-45.1142	676.9224	6.4817	86.5231	-8.724	30.8201	5.3173	72.5747	-0.0592	0.0182	-0.0073	-0.0462	0.0165	0.9585
9.3769	2.6205	694.4998	47.6837	-256.8959	-45.5924	692.6085	5.1446	73.6602	-8.1811	26.213	5.2811	61.7791	-0.0592	0.0182	-0.0073	-0.0462	0.0165	0.9585
9.3956	1.5168	715.9768	49.0972	-264.9085	-46.837	711.4055	3.6292	60.7582	-7.3847	21.6007	5.1041	50.9985	-0.0592	0.0182	-0.0073	-0.0462	0.0165	0.9585
9.4144	-0.082901	740.2426	51.0884	-273.8061	-48.8283	733.1352	2.0736	48.0989	-6.3453	17.0874	4.7455	40.4677	-0.0592	0.0182	-0.0073	-0.0462	0.0165	0.9585
9.4332	-1.953	766.5271	53.6102	-283.3034	-51.4476	756.9336	0.68924	36.1463	-5.1205	12.8381	4.1766	30.5627	-0.0592	0.0182	-0.0073	-0.0462	0.0165	0.9585
9.452	-3.8403	793.3796	56.5355	-292.8719	-54.4844	781.2609	-0.30473	25.446	-3.8059	9.0439	3.4001	21.7215	-0.0592	0.0182	-0.0073	-0.0462	0.0165	0.9585
9.4708	-5.4802	818.7594	59.6706	-301.7736	-57.6559	804.0133	-0.78601	16.5013	-2.5264	5.8785	2.4768	14.3433	-0.0592	0.0182	-0.0073	-0.0462	0.0165	0.9585
